<svg width="24" height="24" viewBox="0 0 24 24" fill="none" xmlns="http://www.w3.org/2000/svg">
<circle cx="12" cy="12" r="12" fill="white"/>
<path fill-rule="evenodd" clip-rule="evenodd" d="M15.1955 7.5501L12.9375 7.5501L12.9375 5.75L15.1955 5.75C17.2205 5.75 18.875 7.38727 18.875 9.5413L18.875 10.75L17.1827 10.75L17.1827 9.5413C17.1827 8.38144 16.2859 7.5501 15.1955 7.5501Z" fill="#444444"/>
<path fill-rule="evenodd" clip-rule="evenodd" d="M6.82221 14.2867L6.82221 11.8438L5.1299 11.8437L5.1299 14.2867C5.1299 16.4408 6.77152 18.187 8.79657 18.187L9.18718 18.187L9.18718 16.3869L8.79657 16.3869C7.70616 16.3869 6.82221 15.4466 6.82221 14.2867Z" fill="#DDDDDD"/>
<path d="M4.5 5.75L11.1667 5.75L11.1667 10.0048L4.5 10.0048L4.5 5.75Z" fill="#444444"/>
<path d="M5.125 6.53125L11.8437 6.53125L11.8437 10.75L5.125 10.75L5.125 6.53125Z" fill="#2C98F3"/>
<path d="M5.125 6.53125L8.48437 8.5625L11.8438 6.53125L5.125 6.53125Z" fill="#58C971"/>
<path d="M10.9062 12.7402L19.5 12.7402L19.5 18.2504L10.9063 18.2504L10.9062 12.7402Z" fill="#DDDDDD"/>
<path d="M10.2812 11.8437L18.875 11.8438L18.875 17.3539L10.2813 17.3539L10.2812 11.8437Z" fill="#E9BCFF"/>
<path d="M10.2812 11.8438L14.5 15.125L18.875 11.8438L10.2812 11.8438Z" fill="#FFCA42"/>
</svg>
