<svg width="823" height="180" viewBox="0 0 823 180" fill="none" xmlns="http://www.w3.org/2000/svg">
<ellipse cx="57.6764" cy="120.697" rx="45.4864" ry="45.577" fill="#444444"/>
<ellipse cx="224.255" cy="120.697" rx="45.4864" ry="45.577" fill="#DDDDDD"/>
<mask id="mask0_1457_363" style="mask-type:alpha" maskUnits="userSpaceOnUse" x="28" y="14" width="225" height="112">
<rect x="28.7852" y="14.1428" width="223.744" height="111.479" fill="#C4C4C4"/>
</mask>
<g mask="url(#mask0_1457_363)">
<mask id="mask1_1457_363" style="mask-type:alpha" maskUnits="userSpaceOnUse" x="29" y="15" width="223" height="310">
<path fill-rule="evenodd" clip-rule="evenodd" d="M140.696 15.8384C79.2964 15.8384 29.522 64.2458 29.522 123.959V324.021H85.2721V129.126C85.2721 99.357 110.086 75.2247 140.695 75.2247C171.305 75.2247 196.118 99.357 196.118 129.126V324.021H251.871V123.959C251.871 64.2458 202.096 15.8384 140.696 15.8384Z" fill="#E9BCFF"/>
</mask>
<g mask="url(#mask1_1457_363)">
<path d="M29.5239 127.013C29.5239 65.6129 79.2983 15.8384 140.698 15.8384C202.098 15.8384 251.872 65.6128 251.872 127.013V324.021H29.5239V127.013Z" fill="#E9BCFF"/>
<path d="M42.1343 128.747C42.1343 74.23 86.3293 30.035 140.847 30.035C195.364 30.035 239.559 74.23 239.559 128.747V343.747H42.1343V128.747Z" fill="#2C98F3"/>
<path d="M55.1006 128.52C55.1006 81.972 92.8352 44.2374 139.383 44.2374C185.931 44.2374 223.666 81.972 223.666 128.52V375.378H55.1006V128.52Z" fill="#58C971"/>
<path d="M70.8438 130.23C70.8438 91.6508 102.118 60.3767 140.697 60.3767C179.275 60.3767 210.549 91.6509 210.549 130.23V414.755H70.8438V130.23Z" fill="#E9BCFF"/>
</g>
</g>
<path d="M330.305 129.989C318.888 129.989 309.34 126.188 301.661 118.585C294.084 110.982 290.295 101.579 290.295 90.3751C290.295 79.1711 294.084 69.7678 301.661 62.1651C309.34 54.5623 318.888 50.761 330.305 50.761C337.68 50.761 344.399 52.5116 350.461 56.0129C356.523 59.5141 361.12 64.2158 364.252 70.1179L347.43 79.8714C345.914 76.7703 343.591 74.3194 340.458 72.5188C337.427 70.7181 333.992 69.8178 330.153 69.8178C324.293 69.8178 319.443 71.7685 315.604 75.6699C311.765 79.4712 309.845 84.373 309.845 90.3751C309.845 96.2772 311.765 101.179 315.604 105.08C319.443 108.882 324.293 110.782 330.153 110.782C334.093 110.782 337.579 109.932 340.61 108.232C343.742 106.431 346.066 103.98 347.581 100.879L364.555 110.482C361.221 116.384 356.523 121.136 350.461 124.737C344.399 128.239 337.68 129.989 330.305 129.989Z" fill="white"/>
<path d="M440.503 73.4191C449.798 78.721 454.445 86.7238 454.445 97.4276C454.445 106.331 451.263 113.633 444.898 119.335C438.533 125.037 430.702 127.889 421.407 127.889H376.396V22.851H418.225C427.318 22.851 434.946 25.652 441.109 31.254C447.373 36.756 450.505 43.8085 450.505 52.4116C450.505 61.1147 447.171 68.1172 440.503 73.4191ZM418.225 42.2079H397.31V65.3162H418.225C421.458 65.3162 424.135 64.2158 426.257 62.015C428.48 59.8142 429.591 57.0632 429.591 53.7621C429.591 50.4609 428.53 47.7099 426.408 45.5091C424.287 43.3083 421.559 42.2079 418.225 42.2079ZM421.407 108.532C424.943 108.532 427.873 107.381 430.197 105.08C432.521 102.68 433.683 99.6784 433.683 96.0772C433.683 92.5759 432.521 89.6749 430.197 87.3741C427.873 84.9732 424.943 83.7728 421.407 83.7728H397.31V108.532H421.407Z" fill="white"/>
<path d="M486.797 65.7663C488.616 60.9646 491.596 57.3633 495.738 54.9625C499.982 52.5616 504.68 51.3612 509.833 51.3612V72.9689C503.872 72.2687 498.517 73.4691 493.768 76.5702C489.121 79.6713 486.797 84.8231 486.797 92.0257V127.889H467.247V52.8617H486.797V65.7663Z" fill="white"/>
<path d="M530.966 43.8585C527.733 43.8585 524.904 42.7081 522.479 40.4073C520.155 38.0064 518.993 35.2054 518.993 32.0043C518.993 28.8031 520.155 26.0021 522.479 23.6013C524.904 21.2004 527.733 20 530.966 20C534.3 20 537.129 21.2004 539.453 23.6013C541.878 26.0021 543.09 28.8031 543.09 32.0043C543.09 35.2054 541.878 38.0064 539.453 40.4073C537.129 42.7081 534.3 43.8585 530.966 43.8585ZM521.267 127.889V52.8617H540.817V127.889H521.267Z" fill="white"/>
<path d="M616.149 22.851H635.699V127.889H616.149V119.035C610.39 126.338 602.206 129.989 591.597 129.989C581.393 129.989 572.653 126.188 565.379 118.585C558.205 110.882 554.619 101.479 554.619 90.3751C554.619 79.2712 558.205 69.9178 565.379 62.3151C572.653 54.6124 581.393 50.761 591.597 50.761C602.206 50.761 610.39 54.4123 616.149 61.7149V22.851ZM580.079 105.681C584.121 109.582 589.172 111.533 595.234 111.533C601.296 111.533 606.298 109.582 610.238 105.681C614.178 101.679 616.149 96.5773 616.149 90.3751C616.149 84.1729 614.178 79.1211 610.238 75.2197C606.298 71.2183 601.296 69.2176 595.234 69.2176C589.172 69.2176 584.121 71.2183 580.079 75.2197C576.139 79.1211 574.169 84.1729 574.169 90.3751C574.169 96.5773 576.139 101.679 580.079 105.681Z" fill="white"/>
<path d="M711.622 52.8617H730.718V124.287C730.718 135.891 726.828 144.745 719.048 150.847C711.37 156.949 702.075 160 691.163 160C682.979 160 675.755 158.449 669.491 155.348C663.328 152.247 658.579 147.696 655.245 141.693L671.916 132.24C675.755 139.243 682.373 142.744 691.769 142.744C697.932 142.744 702.782 141.143 706.318 137.942C709.854 134.741 711.622 130.189 711.622 124.287V116.184C705.864 123.787 697.781 127.588 687.374 127.588C676.665 127.588 667.673 123.887 660.398 116.484C653.225 108.982 649.638 99.8785 649.638 89.1747C649.638 78.5709 653.275 69.5177 660.55 62.015C667.824 54.5123 676.766 50.761 687.374 50.761C697.781 50.761 705.864 54.5623 711.622 62.1651V52.8617ZM675.099 104.03C679.14 107.831 684.242 109.732 690.405 109.732C696.568 109.732 701.62 107.831 705.56 104.03C709.602 100.129 711.622 95.1768 711.622 89.1747C711.622 83.2726 709.602 78.4209 705.56 74.6195C701.62 70.7181 696.568 68.7674 690.405 68.7674C684.242 68.7674 679.14 70.7181 675.099 74.6195C671.158 78.4209 669.188 83.2726 669.188 89.1747C669.188 95.1768 671.158 100.129 675.099 104.03Z" fill="white"/>
<path d="M764.965 98.328C767.592 107.731 774.715 112.433 786.334 112.433C793.81 112.433 799.468 109.932 803.308 104.93L819.069 113.934C811.592 124.637 800.58 129.989 786.031 129.989C773.503 129.989 763.45 126.238 755.872 118.735C748.294 111.233 744.506 101.779 744.506 90.3751C744.506 79.0711 748.244 69.6677 755.72 62.1651C763.197 54.5623 772.795 50.761 784.515 50.761C795.629 50.761 804.773 54.5623 811.946 62.1651C819.221 69.7678 822.858 79.1711 822.858 90.3751C822.858 92.876 822.605 95.527 822.1 98.328H764.965ZM764.662 83.3226H803.308C802.196 78.2208 799.872 74.4194 796.336 71.9185C792.901 69.4176 788.961 68.1672 784.515 68.1672C779.261 68.1672 774.917 69.5177 771.482 72.2186C768.047 74.8196 765.773 78.5209 764.662 83.3226Z" fill="white"/>
</svg>
